<?xml version="1.0" encoding="UTF-8" standalone="no"?> <svg xmlns="http://www.w3.org/2000/svg" viewBox="0 0 223.63 223.63"><title>Achievement</title><g id="Achievement"><path fill="#e1e1e6" d="M207,94.87H153.45c-1.65,0-2.57,1.73-2.57,3.39V216.75c0,1.65.92,3.12,2.57,3.12H207a3,3,0,0,0,2.88-3.12V98.26C209.88,96.6,208.65,94.87,207,94.87Z"/><rect fill="#e1e1e6" x="78.88" y="157.87" width="60" height="62" rx="3"/><rect fill="#e1e1e6" x="7.88" y="188.87" width="60" height="31" rx="3"/><path fill="#e1e1e6" d="M23.88,173.86a3,3,0,0,0,3-2.75V157.44c0-20.09,15.89-36.57,36-36.57H81a2.74,2.74,0,0,0,2.86-2.62V99.82c0-21.3,17.21-38.95,38.51-38.95h.49V67.1a2.23,2.23,0,0,0,1.36,2.17,2,2,0,0,0,.82.17,2.26,2.26,0,0,0,1.66-.72L135,60.06a2.32,2.32,0,0,0,0-3.23l-8.27-8.66a2.16,2.16,0,0,0-2.46-.55,2.23,2.23,0,0,0-1.36,2.17v6.08h-.49c-24.33,0-44.51,19.62-44.51,43.95v16.05h-15a41.72,41.72,0,0,0-42,41.57v13.67A3,3,0,0,0,23.88,173.86Z"/><path fill="#e1e1e6" d="M179.88,16a3,3,0,0,0,3-2.75V6.59a3,3,0,0,0-6,0v6.68A3,3,0,0,0,179.88,16Z"/><path fill="#e1e1e6" d="M192.48,18.73a2.8,2.8,0,0,0,1.25.3,2.75,2.75,0,0,0,2.45-1.49l3.09-6A2.75,2.75,0,1,0,194.38,9l-3.09,6A2.74,2.74,0,0,0,192.48,18.73Z"/><path fill="#e1e1e6" d="M164.12,17a2.76,2.76,0,0,0,2.49,1.59,2.88,2.88,0,0,0,1.17-.26,2.76,2.76,0,0,0,1.32-3.66l-2.87-6.13a2.75,2.75,0,0,0-5,2.34Z"/><path fill="#e1e1e6" d="M206.48,33.87H201l.39-6.09a2.77,2.77,0,0,0-2.94-2.91H161.14a2.76,2.76,0,0,0-2.94,2.91l.39,6.09H154a7.87,7.87,0,0,0-5,13.87l6.82,5.81v0l4.42,3.74h0v0A20,20,0,0,0,174,72.48a3.49,3.49,0,0,1,2.43,3.12l1,10.39c0,.58-.41.88-1,.88H167.6c-.55,0-.72.84-.72,1.39v2c0,.55.17.61.72.61H192c.55,0,.92-.06.92-.61v-2c0-.55-.37-1.39-.92-1.39h-8.83c-.58,0-1-.3-1-.88l1-10.49a3.44,3.44,0,0,1,2.42-3.07,19.91,19.91,0,0,0,13.54-14.18h.09l4.67-3.89h0l7.7-6.58a7.94,7.94,0,0,0-5.1-13.92ZM151.54,44.74a4,4,0,0,1-1.35-3,3.88,3.88,0,0,1,3.8-3.88h4.84l.84,13.65-4.23-3.47Zm28.13,14.4a11.09,11.09,0,1,1,11.08-11.09A11.09,11.09,0,0,1,179.67,59.14Zm29.25-14.4-4.85,4.1-4.23,3.47.88-14.44h5.76a3.86,3.86,0,0,1,3.78,3.88A4,4,0,0,1,208.92,44.74Z"/><circle cx="179.67" cy="48.05" r="5.5"/></g></svg>