<?xml version="1.0" encoding="UTF-8" standalone="no"?> <svg viewBox="-38 0 511 512" xmlns="http://www.w3.org/2000/svg"><path fill="#e1e1e6" d="m288.828125 447.761719-.007813.003906c-4.417968 3.3125-5.3125 9.578125-1.996093 13.996094 1.964843 2.621093 4.964843 4 8.007812 4 2.089844 0 4.195313-.652344 5.996094-2 4.417969-3.3125 5.3125-9.582031 2-14-3.316406-4.417969-9.582031-5.316407-14-2zm0 0"/><path fill="#e1e1e6" d="m431.847656 333.664062c-4.125-7.550781-11.160156-12.945312-19.816406-15.179687-9.730469-2.511719-20.714844-.722656-29.386719 4.789063l-77.855469 49.4375c-5.128906-13.90625-18.996093-23.378907-34.511718-22.265626l-38.109375 2.746094c-28.753907 2.070313-29.09375 1.875-46.691407-8.324218-3.933593-2.28125-8.832031-5.121094-14.894531-8.4375-23.492187-12.84375-50.058593-18.03125-81.207031-15.871094-23.488281 1.632812-49.5625 7.46875-82.054688 18.367187-4.074218 1.367188-6.820312 5.183594-6.820312 9.480469v118.253906c0 3.234375 1.566406 6.273438 4.199219 8.148438 2.636719 1.875 6.019531 2.359375 9.074219 1.300781l45.023437-15.605469 97.957031 41.902344c14.851563 6.320312 28.113282 9.59375 41.351563 9.59375 20.839843 0 41.617187-8.109375 68.433593-25.1875 4.660157-2.96875 6.03125-9.148438 3.0625-13.808594-2.96875-4.65625-9.144531-6.027344-13.804687-3.0625-42.320313 26.957032-63.132813 26.011719-91.195313 14.070313l-101.492187-43.414063c-2.289063-.980468-4.859375-1.070312-7.210937-.253906l-35.394532 12.269531v-96.972656c45.695313-14.773437 97.203125-25.324219 140.484375-1.660156 5.84375 3.195312 10.421875 5.847656 14.464844 8.191406 20.621094 11.953125 24.546875 13.390625 58.15625 10.96875l38.105469-2.746094c7.765625-.558593 14.582031 5.320313 15.144531 13.109375.097656 1.371094-.011719 2.660156-.300781 3.859375-.03125.121094-.0625.238281-.089844.355469-1.632812 6.027344-7.730469 9.847656-13.964844 11.097656-23.058594 4.617188-45.324218 8.734375-66.859375 12.710938-10.988281 2.03125-21.980469 4.0625-33.121093 6.167968-5.425782 1.023438-8.996094 6.253907-7.96875 11.683594 1.023437 5.425782 6.261718 8.996094 11.679687 7.96875 11.113281-2.097656 22.082031-4.125 33.046875-6.152344 21.605469-3.992187 43.945312-8.121093 67.152344-12.769531 13.578125-2.71875 23.808594-11.027343 28.160156-21.898437l88.769531-56.371094c4.09375-2.597656 9.199219-3.464844 13.667969-2.304688 2.292969.589844 5.410156 2.007813 7.261719 5.394532 3.878906 7.105468 3.894531 16.941406-3.570313 21.992187l-88.375 59.820313c-4.570312 3.09375-5.769531 9.3125-2.675781 13.886718 3.09375 4.574219 9.3125 5.769532 13.886719 2.675782l88.375-59.816406c15.3125-10.367188 19.480468-30.609376 9.914062-48.140626zm0 0"/><path fill="#e1e1e6" d="m218.695312 300.003906c82.710938 0 150-67.292968 150-150.003906s-67.289062-150-150-150c-24.765624 0-49.378906 6.210938-71.175781 17.960938-4.863281 2.621093-6.679687 8.6875-4.058593 13.550781 2.621093 4.859375 8.6875 6.675781 13.546874 4.054687 18.894532-10.183594 40.226563-15.566406 61.6875-15.566406 71.683594 0 130 58.320312 130 130 0 71.683594-58.316406 130.003906-130 130.003906-71.683593 0-130-58.320312-130-130.003906 0-21.578125 5.4375-43.011719 15.726563-61.980469 2.636719-4.855469.832031-10.925781-4.019531-13.5625-4.855469-2.632812-10.925782-.832031-13.558594 4.023438-11.875 21.890625-18.148438 46.621093-18.148438 71.519531 0 82.710938 67.289063 150.003906 150 150.003906zm0 0"/><path fill="#e1e1e6" d="m208.695312 150c0 5.523438 4.476563 10 10 10h38.753907c5.523437 0 10-4.476562 10-10s-4.476563-10-10-10h-28.753907l-.003906-49.996094c0-5.523437-4.476562-10-10-10-5.523437 0-10 4.476563-10 10zm0 0"/><path fill="#e1e1e6" d="m218.699219 60.003906c5.523437 0 10-4.476562 10-10 0-5.523437-4.476563-10-10-10h-.007813c-5.523437 0-9.996094 4.476563-9.996094 10 0 5.523438 4.480469 10 10.003907 10zm0 0"/><path fill="#e1e1e6" d="m168.707031 73.398438c1.710938 0 3.445313-.4375 5.03125-1.363282 4.769531-2.78125 6.382813-8.90625 3.597657-13.675781-2.78125-4.769531-8.898438-6.382813-13.675782-3.597656h-.007812c-4.769532 2.785156-6.378906 8.90625-3.59375 13.675781 1.859375 3.1875 5.207031 4.960938 8.648437 4.960938zm0 0"/><path fill="#e1e1e6" d="m123.578125 94.757812-.003906.007813c-2.894531 4.699219-1.425781 10.855469 3.277343 13.753906 1.632813 1.003907 3.441407 1.480469 5.230469 1.480469 3.359375 0 6.640625-1.691406 8.527344-4.761719 2.898437-4.703125 1.429687-10.863281-3.273437-13.757812-4.703126-2.894531-10.863282-1.425781-13.757813 3.277343zm0 0"/><path fill="#e1e1e6" d="m118.695312 160c5.523438 0 10-4.480469 10-10 0-5.523438-4.476562-10-10-10-5.519531 0-10 4.476562-10 10v.003906c0 5.523438 4.480469 9.996094 10 9.996094zm0 0"/><path fill="#e1e1e6" d="m126.851562 191.480469c-4.703124 2.894531-6.171874 9.054687-3.277343 13.757812l.003906.003907c1.890625 3.070312 5.167969 4.757812 8.523437 4.757812 1.789063 0 3.597657-.476562 5.234376-1.484375 4.703124-2.894531 6.167968-9.058594 3.273437-13.761719-2.894531-4.699218-9.050781-6.167968-13.757813-3.273437zm0 0"/><path fill="#e1e1e6" d="m163.652344 245.238281.007812.003907c1.585938.921874 3.316406 1.363281 5.027344 1.363281 3.4375 0 6.789062-1.777344 8.644531-4.964844 2.785157-4.769531 1.171875-10.894531-3.601562-13.679687-4.769531-2.78125-10.894531-1.171876-13.675781 3.601562-2.78125 4.769531-1.171876 10.894531 3.597656 13.675781zm0 0"/><path fill="#e1e1e6" d="m218.691406 260h.007813c5.523437 0 9.996093-4.476562 9.996093-10s-4.480468-10-10.003906-10c-5.523437 0-10 4.476562-10 10s4.476563 10 10 10zm0 0"/><path fill="#e1e1e6" d="m263.652344 227.964844c-4.769532 2.785156-6.382813 8.90625-3.597656 13.679687 1.855468 3.183594 5.207031 4.960938 8.644531 4.960938 1.710937 0 3.445312-.4375 5.03125-1.363281l.003906-.003907c4.773437-2.78125 6.378906-8.902343 3.597656-13.675781-2.78125-4.769531-8.910156-6.378906-13.679687-3.597656zm0 0"/><path fill="#e1e1e6" d="m300.054688 208.519531c1.632812 1.007813 3.441406 1.484375 5.230468 1.484375 3.355469 0 6.636719-1.6875 8.523438-4.757812l.003906-.007813c2.898438-4.703125 1.429688-10.859375-3.273438-13.753906-4.707031-2.894531-10.867187-1.425781-13.761718 3.277344-2.894532 4.703125-1.425782 10.863281 3.277344 13.757812zm0 0"/><path fill="#e1e1e6" d="m308.695312 150.003906c0 5.523438 4.476563 10 10 10 5.519532 0 10-4.476562 10-10v-.007812c0-5.523438-4.480468-9.996094-10-9.996094-5.523437 0-10 4.480469-10 10.003906zm0 0"/><path fill="#e1e1e6" d="m313.8125 94.757812c-2.894531-4.703124-9.054688-6.167968-13.757812-3.273437-4.703126 2.894531-6.167969 9.058594-3.273438 13.761719 1.890625 3.070312 5.167969 4.761718 8.527344 4.761718 1.785156 0 3.597656-.480468 5.230468-1.484374 4.703126-2.898438 6.171876-9.054688 3.273438-13.757813zm0 0"/><path fill="#e1e1e6" d="m273.738281 54.761719h-.007812c-4.769531-2.785157-10.890625-1.171875-13.671875 3.601562-2.785156 4.769531-1.171875 10.894531 3.601562 13.675781 1.582032.925782 3.316406 1.363282 5.027344 1.363282 3.441406 0 6.789062-1.777344 8.648438-4.960938 2.78125-4.773437 1.171874-10.894531-3.597657-13.679687zm0 0"/><path fill="#e1e1e6" d="m119.816406 60.882812c2.640625 0 5.28125-1.039062 7.25-3.105468 3.808594-3.996094 3.652344-10.328125-.347656-14.136719-3.996094-3.808594-10.328125-3.65625-14.136719.34375l-.011719.011719c-3.808593 4-3.648437 10.324218.351563 14.132812 1.933594 1.839844 4.414063 2.753906 6.894531 2.753906zm0 0"/></svg>